# Blender 4.5.0
# www.blender.org
mtllib warai_me.mtl
o 立方体.011
v 0.616903 0.300028 0.062053
v 0.601242 0.344603 0.064910
v 0.551126 0.358400 0.074054
v 0.440455 0.346725 0.094245
v 0.106352 0.146138 0.155201
v 0.321430 0.310641 0.115961
v 0.203450 0.258637 0.137486
v 0.110528 0.179039 0.154439
v 0.591845 0.266066 0.066625
v 0.478041 0.253330 0.087388
v 0.376766 0.228920 0.105865
v 0.300549 0.199204 0.119770
v 0.298461 0.186468 0.120151
v 0.377810 0.166303 0.105674
v 0.447763 0.140832 0.092912
v 0.540686 0.100502 0.075958
v 0.625256 0.049559 0.060529
v 0.664930 0.015598 0.053291
v 0.669107 -0.013058 0.052529
v 0.657622 -0.040652 0.054624
v 0.623167 -0.057633 0.060910
v 0.601242 -0.053387 0.064910
v 0.537553 -0.013058 0.076530
v 0.414353 0.048498 0.099007
v 0.324563 0.078215 0.115389
v 0.230596 0.095196 0.132533
v 0.138718 0.105809 0.149296
v 0.116792 0.119606 0.153296
v 0.394715 0.228920 0.204241
v 0.318497 0.199204 0.218147
v 0.609794 0.266066 0.165001
v 0.495990 0.253330 0.185764
v 0.619190 0.344603 0.163286
v 0.634851 0.300028 0.160429
v 0.569075 0.358400 0.172430
v 0.458403 0.346725 0.192621
v 0.128476 0.179039 0.252815
v 0.221399 0.258637 0.235862
v 0.124300 0.146138 0.253577
v 0.339379 0.310641 0.214337
v 0.316409 0.186468 0.218527
v 0.395759 0.166303 0.204051
v 0.465711 0.140832 0.191288
v 0.558634 0.100502 0.174335
v 0.643204 0.049559 0.158905
v 0.682879 0.015598 0.151667
v 0.687055 -0.013058 0.150905
v 0.675570 -0.040652 0.153000
v 0.641116 -0.057633 0.159286
v 0.619190 -0.053387 0.163286
v 0.555502 -0.013058 0.174906
v 0.432301 0.048498 0.197383
v 0.342511 0.078215 0.213765
v 0.248544 0.095196 0.230909
v 0.156666 0.105809 0.247672
v 0.134740 0.119606 0.251672
vn -0.1795 -0.0000 -0.9838
vn 0.1795 -0.0000 0.9838
vn 0.5015 0.8603 -0.0915
vn 0.9264 0.3363 -0.1690
vn 0.6337 0.7649 -0.1156
vn 0.2572 0.9652 -0.0469
vn 0.9731 0.1465 -0.1775
vn -0.1015 0.9947 0.0185
vn 0.9060 -0.3896 -0.1653
vn -0.6339 0.7647 0.1157
vn 0.4292 -0.8998 -0.0783
vn -0.9757 0.1280 0.1780
vn -0.1841 -0.9823 0.0336
vn -0.2812 0.9583 0.0513
vn -0.5202 -0.8488 0.0949
vn -0.3914 0.9175 0.0714
vn -0.4340 -0.8974 0.0792
vn 0.2270 -0.9730 -0.0414
vn -0.3046 -0.9509 0.0556
vn 0.7870 -0.6000 -0.1436
vn -0.1722 -0.9846 0.0314
vn 0.9704 -0.1644 -0.1770
vn -0.1111 -0.9936 0.0203
vn 0.2386 0.9701 -0.0435
vn -0.5178 -0.8503 0.0945
vn 0.3318 0.9414 -0.0605
vn 0.3523 -0.9337 -0.0643
vn -0.9134 -0.3714 0.1666
vn 0.3863 0.9197 -0.0705
vn 0.1077 -0.9940 -0.0196
vt 0.000000 0.000000
s 0
usemtl Material.001
f 2/1/1 1/1/1 9/1/1 3/1/1
f 9/1/1 10/1/1 4/1/1 3/1/1
f 6/1/1 4/1/1 10/1/1 11/1/1
f 11/1/1 12/1/1 7/1/1 6/1/1
f 18/1/1 19/1/1 20/1/1 21/1/1 22/1/1 17/1/1
f 16/1/1 17/1/1 22/1/1 23/1/1
f 15/1/1 16/1/1 23/1/1 24/1/1
f 14/1/1 15/1/1 24/1/1 25/1/1
f 13/1/1 14/1/1 25/1/1 26/1/1
f 8/1/1 7/1/1 12/1/1 13/1/1 5/1/1
f 26/1/1 27/1/1 28/1/1 5/1/1 13/1/1
f 33/1/2 35/1/2 31/1/2 34/1/2
f 31/1/2 35/1/2 36/1/2 32/1/2
f 40/1/2 29/1/2 32/1/2 36/1/2
f 29/1/2 40/1/2 38/1/2 30/1/2
f 46/1/2 45/1/2 50/1/2 49/1/2 48/1/2 47/1/2
f 44/1/2 51/1/2 50/1/2 45/1/2
f 43/1/2 52/1/2 51/1/2 44/1/2
f 42/1/2 53/1/2 52/1/2 43/1/2
f 41/1/2 54/1/2 53/1/2 42/1/2
f 37/1/2 39/1/2 41/1/2 30/1/2 38/1/2
f 54/1/2 41/1/2 39/1/2 56/1/2 55/1/2
f 17/1/3 16/1/3 44/1/3 45/1/3
f 1/1/4 2/1/4 33/1/4 34/1/4
f 18/1/5 17/1/5 45/1/5 46/1/5
f 2/1/6 3/1/6 35/1/6 33/1/6
f 19/1/7 18/1/7 46/1/7 47/1/7
f 3/1/8 4/1/8 36/1/8 35/1/8
f 20/1/9 19/1/9 47/1/9 48/1/9
f 7/1/10 8/1/10 37/1/10 38/1/10
f 21/1/11 20/1/11 48/1/11 49/1/11
f 8/1/12 5/1/12 39/1/12 37/1/12
f 22/1/13 21/1/13 49/1/13 50/1/13
f 4/1/14 6/1/14 40/1/14 36/1/14
f 23/1/15 22/1/15 50/1/15 51/1/15
f 6/1/16 7/1/16 38/1/16 40/1/16
f 24/1/17 23/1/17 51/1/17 52/1/17
f 11/1/18 10/1/18 32/1/18 29/1/18
f 25/1/19 24/1/19 52/1/19 53/1/19
f 9/1/20 1/1/20 34/1/20 31/1/20
f 26/1/21 25/1/21 53/1/21 54/1/21
f 13/1/22 12/1/22 30/1/22 41/1/22
f 27/1/23 26/1/23 54/1/23 55/1/23
f 14/1/24 13/1/24 41/1/24 42/1/24
f 28/1/25 27/1/25 55/1/25 56/1/25
f 15/1/26 14/1/26 42/1/26 43/1/26
f 12/1/27 11/1/27 29/1/27 30/1/27
f 5/1/28 28/1/28 56/1/28 39/1/28
f 16/1/29 15/1/29 43/1/29 44/1/29
f 10/1/30 9/1/30 31/1/30 32/1/30
